<svg id='Apology_24' width='24' height='24' viewBox='0 0 24 24' xmlns='http://www.w3.org/2000/svg' xmlns:xlink='http://www.w3.org/1999/xlink'><rect width='24' height='24' stroke='none' fill='#000000' opacity='0'/>


<g transform="matrix(0.42 0 0 0.42 12 12)" >
<g style="" >
<g transform="matrix(1 0 0 1 0 -0.04)" >
<path style="stroke: none; stroke-width: 1; stroke-dasharray: none; stroke-linecap: butt; stroke-dashoffset: 0; stroke-linejoin: miter; stroke-miterlimit: 4; fill: rgb(255,202,40); fill-rule: nonzero; opacity: 1;" transform=" translate(-24, -23.96)" d="M 24 4 C 13 4 4 13 4 24 C 4 34.381 12.018 42.972 22.167 43.907 L 22.167 38.974999999999994 L 25.5 38.974999999999994 L 25.5 43.92399999999999 C 35.804 43.148 44 34.494 44 24 C 44 13 35 4 24 4 z" stroke-linecap="round" />
</g>
<g transform="matrix(1 0 0 1 -7 -1)" >
<path style="stroke: none; stroke-width: 1; stroke-dasharray: none; stroke-linecap: butt; stroke-dashoffset: 0; stroke-linejoin: miter; stroke-miterlimit: 4; fill: rgb(109,76,65); fill-rule: nonzero; opacity: 1;" transform=" translate(-17, -23)" d="M 21 23 C 21 25.2 19.2 27 17 27 C 14.8 27 13 25.2 13 23 C 13 20.8 14.8 19 17 19 C 19.2 19 21 20.8 21 23 z" stroke-linecap="round" />
</g>
<g transform="matrix(1 0 0 1 -7.5 -2.5)" >
<path style="stroke: none; stroke-width: 1; stroke-dasharray: none; stroke-linecap: butt; stroke-dashoffset: 0; stroke-linejoin: miter; stroke-miterlimit: 4; fill: rgb(255,255,255); fill-rule: nonzero; opacity: 1;" transform=" translate(-16.5, -21.5)" d="M 18 21.5 C 18 22.3 17.3 23 16.5 23 C 15.7 23 15 22.3 15 21.5 C 15 20.7 15.7 20 16.5 20 C 17.3 20 18 20.7 18 21.5 z" stroke-linecap="round" />
</g>
<g transform="matrix(1 0 0 1 7 -1)" >
<path style="stroke: none; stroke-width: 1; stroke-dasharray: none; stroke-linecap: butt; stroke-dashoffset: 0; stroke-linejoin: miter; stroke-miterlimit: 4; fill: rgb(109,76,65); fill-rule: nonzero; opacity: 1;" transform=" translate(-31, -23)" d="M 35 23 C 35 25.2 33.2 27 31 27 C 28.799999999999997 27 27 25.2 27 23 C 27 20.8 28.8 19 31 19 C 33.2 19 35 20.8 35 23 z" stroke-linecap="round" />
</g>
<g transform="matrix(1 0 0 1 6.5 -2.5)" >
<path style="stroke: none; stroke-width: 1; stroke-dasharray: none; stroke-linecap: butt; stroke-dashoffset: 0; stroke-linejoin: miter; stroke-miterlimit: 4; fill: rgb(255,255,255); fill-rule: nonzero; opacity: 1;" transform=" translate(-30.5, -21.5)" d="M 32 21.5 C 32 22.3 31.3 23 30.5 23 C 29.7 23 29 22.3 29 21.5 C 29 20.7 29.7 20 30.5 20 C 31.3 20 32 20.7 32 21.5 z" stroke-linecap="round" />
</g>
<g transform="matrix(1 0 0 1 9.79 -4.53)" >
<path style="stroke: none; stroke-width: 1; stroke-dasharray: none; stroke-linecap: butt; stroke-dashoffset: 0; stroke-linejoin: miter; stroke-miterlimit: 4; fill: rgb(255,202,40); fill-rule: nonzero; opacity: 1;" transform=" translate(-33.79, -19.47)" d="M 38.481 21.196 C 37.953 22.634 35.410000000000004 23.035 32.829 22.088 C 30.248 21.141000000000002 28.569000000000003 19.189 29.097 17.751 C 29.625 16.313000000000002 32.168 15.912 34.749 16.859 C 37.329 17.806 39.009 19.758 38.481 21.196 z" stroke-linecap="round" />
</g>
<g transform="matrix(1 0 0 1 -9.61 -4.53)" >
<path style="stroke: none; stroke-width: 1; stroke-dasharray: none; stroke-linecap: butt; stroke-dashoffset: 0; stroke-linejoin: miter; stroke-miterlimit: 4; fill: rgb(255,202,40); fill-rule: nonzero; opacity: 1;" transform=" translate(-14.39, -19.47)" d="M 9.702 21.196 C 10.23 22.634 12.773 23.035 15.354 22.088 C 17.935 21.141000000000002 19.613999999999997 19.189 19.086 17.751 C 18.558 16.313000000000002 16.014999999999997 15.912 13.433999999999997 16.859 C 10.853 17.806 9.174 19.758 9.702 21.196 z" stroke-linecap="round" />
</g>
<g transform="matrix(1 0 0 1 9.79 -6.43)" >
<path style="stroke: none; stroke-width: 1; stroke-dasharray: none; stroke-linecap: butt; stroke-dashoffset: 0; stroke-linejoin: miter; stroke-miterlimit: 4; fill: rgb(255,179,0); fill-rule: nonzero; opacity: 1;" transform=" translate(-33.79, -17.57)" d="M 31.281 16.367 C 30.485999999999997 15.994000000000002 29.756 15.576 29.102999999999998 15.139000000000001 C 29.101999999999997 15.143 29.098 15.146 29.096999999999998 15.15 C 28.569 16.588 30.249 18.539 32.829 19.487000000000002 C 35.410000000000004 20.434 37.953 20.033 38.481 18.595000000000002 C 38.629000000000005 18.192000000000004 38.588 17.749000000000002 38.418 17.299000000000003 C 37.262 18.135 34.312 17.791 31.281 16.367 z" stroke-linecap="round" />
</g>
<g transform="matrix(1 0 0 1 -9.61 -6.47)" >
<path style="stroke: none; stroke-width: 1; stroke-dasharray: none; stroke-linecap: butt; stroke-dashoffset: 0; stroke-linejoin: miter; stroke-miterlimit: 4; fill: rgb(255,179,0); fill-rule: nonzero; opacity: 1;" transform=" translate(-14.39, -17.53)" d="M 19.028 15.052 C 18.343 15.520999999999999 17.566 15.969 16.718 16.367 C 13.803 17.736 10.966000000000001 18.105 9.724 17.387 C 9.583 17.806 9.563 18.218 9.701 18.594 C 10.229000000000001 20.032 12.772 20.433 15.353000000000002 19.486 C 17.934000000000005 18.539 19.613 16.587 19.085 15.149000000000001 C 19.073 15.114 19.044 15.087 19.028 15.052 z" stroke-linecap="round" />
</g>
<g transform="matrix(1 0 0 1 4.21 14.96)" >
<path style="stroke: none; stroke-width: 1; stroke-dasharray: none; stroke-linecap: butt; stroke-dashoffset: 0; stroke-linejoin: miter; stroke-miterlimit: 4; fill: rgb(204,204,204); fill-rule: nonzero; opacity: 1;" transform=" translate(-28.21, -38.96)" d="M 29.693 42.293 C 29.508000000000003 42.293 29.336000000000002 42.199999999999996 29.234 42.047 L 29.214000000000002 42.010999999999996 L 27.643 38.352 L 26.348 31.013999999999996 C 26.261 30.512999999999995 25.869 30.102999999999994 25.394 30.018999999999995 C 25.32 30.006 25.245 30 25.173 30 C 24.519 30 24.006999999999998 30.517 24.006999999999998 31.177 L 24.006999999999998 39.394999999999996 L 24.006999999999998 39.471999999999994 L 24.02 39.547999999999995 L 24.955 44.843999999999994 C 25.267999999999997 46.62899999999999 27.688 47.925 29.503999999999998 47.925 L 29.692999999999998 47.925 C 31.197999999999997 47.925 32.417 46.705 32.417 45.20099999999999 L 32.417 45.016999999999996 C 32.417 43.512 31.197 42.293 29.693 42.293 L 29.693 42.293 z" stroke-linecap="round" />
</g>
<g transform="matrix(1 0 0 1 4.62 20.62)" >
<path style="stroke: none; stroke-width: 1; stroke-dasharray: none; stroke-linecap: butt; stroke-dashoffset: 0; stroke-linejoin: miter; stroke-miterlimit: 4; fill: rgb(230,230,230); fill-rule: nonzero; opacity: 1;" transform=" translate(-28.62, -44.62)" d="M 27.906 47.698 L 29.403 47.962 C 30.764 48.202000000000005 32.062 47.293000000000006 32.302 45.932 L 32.369 45.554 C 32.658 43.914 31.563 42.35 29.923 42.061 L 25.255 41.238 L 24.878 43.375 C 24.52 45.404 25.876 47.34 27.906 47.698 z" stroke-linecap="round" />
</g>
<g transform="matrix(1 0 0 1 1.32 11.52)" >
<path style="stroke: none; stroke-width: 1; stroke-dasharray: none; stroke-linecap: butt; stroke-dashoffset: 0; stroke-linejoin: miter; stroke-miterlimit: 4; fill: rgb(230,230,230); fill-rule: nonzero; opacity: 1;" transform=" translate(-25.32, -35.52)" d="M 24.94 32 L 24.94 32 C 24.424 32 24.006 32.418 24.006 32.934 L 24.006 39.039 L 26.64 39.039 L 25.866 32.818 C 25.809 32.351 25.412 32 24.94 32 z" stroke-linecap="round" />
</g>
<g transform="matrix(1 0 0 1 2.97 17.99)" >
<path style="stroke: none; stroke-width: 1; stroke-dasharray: none; stroke-linecap: butt; stroke-dashoffset: 0; stroke-linejoin: miter; stroke-miterlimit: 4; fill: rgb(230,230,230); fill-rule: nonzero; opacity: 1;" transform=" translate(-26.97, -41.99)" d="M 29.933 42.268 L 24.967 45.034 C 24.66 44.24 24.016 42.488 24 38.953 L 26.634 38.953 C 27.189 40.515 28.571 41.703 29.933 42.268 z" stroke-linecap="round" />
</g>
<g transform="matrix(1 0 0 1 -4.21 14.96)" >
<path style="stroke: none; stroke-width: 1; stroke-dasharray: none; stroke-linecap: butt; stroke-dashoffset: 0; stroke-linejoin: miter; stroke-miterlimit: 4; fill: rgb(230,230,230); fill-rule: nonzero; opacity: 1;" transform=" translate(-19.79, -38.96)" d="M 18.307 42.293 C 18.491999999999997 42.293 18.663999999999998 42.199999999999996 18.766 42.047 L 18.785999999999998 42.010999999999996 L 20.357 38.352 L 21.652 31.013999999999996 C 21.739 30.512999999999995 22.131 30.102999999999994 22.606 30.018999999999995 C 22.68 30.006 22.755 30 22.827 30 C 23.481 30 23.993000000000002 30.517 23.993000000000002 31.177 L 23.993000000000002 39.394999999999996 L 23.993000000000002 39.471999999999994 L 23.98 39.547999999999995 L 23.045 44.843999999999994 C 22.732000000000003 46.62899999999999 20.312 47.925 18.496000000000002 47.925 L 18.307000000000002 47.925 C 16.802000000000003 47.925 15.583000000000002 46.705 15.583000000000002 45.20099999999999 L 15.583000000000002 45.016999999999996 C 15.583 43.512 16.803 42.293 18.307 42.293 L 18.307 42.293 z" stroke-linecap="round" />
</g>
<g transform="matrix(1 0 0 1 -4.62 20.62)" >
<path style="stroke: none; stroke-width: 1; stroke-dasharray: none; stroke-linecap: butt; stroke-dashoffset: 0; stroke-linejoin: miter; stroke-miterlimit: 4; fill: rgb(242,242,242); fill-rule: nonzero; opacity: 1;" transform=" translate(-19.38, -44.62)" d="M 20.094 47.698 L 18.597 47.962 C 17.236 48.202000000000005 15.938000000000002 47.293000000000006 15.698 45.932 L 15.631 45.554 C 15.342 43.914 16.437 42.35 18.077 42.061 L 22.745 41.238 L 23.122 43.375 C 23.48 45.404 22.124 47.34 20.094 47.698 z" stroke-linecap="round" />
</g>
<g transform="matrix(1 0 0 1 -1.32 11.52)" >
<path style="stroke: none; stroke-width: 1; stroke-dasharray: none; stroke-linecap: butt; stroke-dashoffset: 0; stroke-linejoin: miter; stroke-miterlimit: 4; fill: rgb(242,242,242); fill-rule: nonzero; opacity: 1;" transform=" translate(-22.68, -35.52)" d="M 23.06 32 L 23.06 32 C 23.576 32 23.994 32.418 23.994 32.934 L 23.994 39.039 L 21.36 39.039 L 22.134 32.818 C 22.191 32.351 22.588 32 23.06 32 z" stroke-linecap="round" />
</g>
<g transform="matrix(1 0 0 1 -2.97 18.06)" >
<path style="stroke: none; stroke-width: 1; stroke-dasharray: none; stroke-linecap: butt; stroke-dashoffset: 0; stroke-linejoin: miter; stroke-miterlimit: 4; fill: rgb(242,242,242); fill-rule: nonzero; opacity: 1;" transform=" translate(-21.03, -42.06)" d="M 18.067 42.268 L 23.004 45.157000000000004 C 23.313000000000002 44.36300000000001 23.986 42.54900000000001 24 38.953 L 21.366 38.953 C 20.811 40.515 19.429 41.703 18.067 42.268 z" stroke-linecap="round" />
</g>
</g>
</g>
</svg>